<?xml version="1.0" encoding="UTF-8"?>
<svg version="1.1" xmlns="http://www.w3.org/2000/svg" width="479" height="416">
<path d="M0 0 C158.07 0 316.14 0 479 0 C479 137.28 479 274.56 479 416 C320.93 416 162.86 416 0 416 C0 278.72 0 141.44 0 0 Z " fill="#000000" transform="translate(0,0)"/>
<path d="M0 0 C4.11727953 3.65653634 7.46642423 8.5642926 8.3203125 14.0625 C8.6834752 21.03522388 6.68130897 26.6650251 2.31054688 32.10131836 C-4.88466259 40.03838232 -12.46436906 47.57618944 -20.0625 55.125 C-21.4188546 56.47632686 -22.7749761 57.82788772 -24.13085938 59.1796875 C-27.41789555 62.45582527 -30.70805696 65.72879311 -34 69 C-32.81482788 69.48484863 -32.81482788 69.48484863 -31.60571289 69.97949219 C-14.93925581 76.8503152 -2.19794319 85.53140289 10.43212891 98.40161133 C13.60499408 101.63415272 16.83847098 104.64802916 20.34765625 107.51611328 C22.13568133 109.12184857 23.63144435 110.83434875 25.1796875 112.671875 C27.69512525 115.58314473 30.2902787 118.31338463 33.078125 120.96484375 C33.76390625 121.62033203 34.4496875 122.27582031 35.15625 122.95117188 C36.55839116 124.28137482 37.97000222 125.60166264 39.390625 126.91210938 C45.16108561 132.48038528 47.3550202 137.56576388 48.5 145.4375 C47.62669703 151.65978368 44.90392952 157.66040912 40.1875 161.9375 C34.31682212 165.73617392 28.13207776 168.39004066 21 167 C12.01533562 163.65654909 7.03366746 158.24040096 1 151 C-1.81457774 148.03328292 -4.76585039 145.33536923 -7.875 142.6875 C-10.66171479 140.2817406 -13.12076515 137.80836625 -15.5 135 C-18.99285024 130.88655222 -22.87443074 127.46207564 -27 124 C-27.94875 123.13375 -28.8975 122.2675 -29.875 121.375 C-41.40626768 112.61123656 -53.34919436 110.87833859 -67.515625 112.2421875 C-81.69738105 114.74184954 -91.09012409 125.36316834 -100.73828125 135.109375 C-102.23196007 136.60222355 -103.72645638 138.09425455 -105.22172546 139.58551025 C-108.34018529 142.70112421 -111.44975514 145.82526647 -114.55297852 148.95605469 C-118.51288009 152.95005036 -122.49252945 156.92365282 -126.47884846 160.89126205 C-129.56369162 163.96549125 -132.63864308 167.04946433 -135.71068382 170.13648224 C-137.17379327 171.60474064 -138.63968929 173.07022811 -140.10851479 174.53276825 C-152.26565586 186.65737703 -161.76661375 197.39092023 -162.4375 215.375 C-162.07065209 229.41527 -156.1216998 241.49822972 -146.3046875 251.26049805 C-145.6518428 251.9251709 -144.99899811 252.58984375 -144.32637024 253.2746582 C-142.18619423 255.44746646 -140.03162665 257.60524622 -137.875 259.76171875 C-136.3659301 261.28111921 -134.85722863 262.80088568 -133.34887695 264.32099915 C-130.19181825 267.49743597 -127.02692786 270.66582052 -123.85693359 273.8293457 C-119.81811318 277.86217667 -115.80497089 281.91953318 -111.7980957 285.98407269 C-108.69075553 289.12858399 -105.56732542 292.25673205 -102.43927002 295.38062477 C-100.9539049 296.86884216 -99.47406524 298.36259774 -98.00018311 299.86218834 C-86.35048567 311.69357412 -75.88305343 320.14059734 -58.5625 320.375 C-46.66100005 320.43495114 -36.96058869 316.90534971 -28 309 C-27.19949219 308.30648438 -26.39898437 307.61296875 -25.57421875 306.8984375 C-20.17576547 302.13075949 -15.04591217 297.13581706 -10 292 C-9.04232893 291.0618235 -8.08409267 290.12422316 -7.125 289.1875 C-4.86323046 286.99188856 -4.86323046 286.99188856 -3 284 C-2.34 284 -1.68 284 -1 284 C-0.74863281 283.41089844 -0.49726563 282.82179688 -0.23828125 282.21484375 C1.15455401 279.72355798 2.6208572 278.37699586 4.8125 276.5625 C7.23670752 274.52999567 9.36355665 272.60008768 11.5 270.25 C15.67157836 266.49557948 19.97575704 265.21688317 25.5 264.625 C32.98030684 265.42646145 39.04550648 268.23021008 44 274 C47.39364997 279.40581412 49.01589714 284.66733262 48 291 C45.62009723 299.67603305 39.36279097 305.18853172 33.0625 311.1875 C31.09050003 313.09298854 29.12519488 315.00530584 27.16015625 316.91796875 C26.24814453 317.80299072 25.33613281 318.6880127 24.39648438 319.59985352 C21.72531292 322.27510684 19.37057842 325.06066476 17 328 C15.82445308 329.09866516 14.61824334 330.1660688 13.375 331.1875 C9.97406223 334.06180002 6.93866331 337.14463736 3.875 340.375 C-5.63577396 350.11432615 -17.27148321 356.35218421 -30 361 C-31.08925781 361.41378906 -32.17851562 361.82757813 -33.30078125 362.25390625 C-55.29400077 369.40232528 -78.45853396 365.36818199 -98.80859375 355.66015625 C-112.4612175 348.66923827 -122.90565571 337.41923159 -133.6328125 326.703125 C-135.11996739 325.22241428 -136.60726464 323.74184653 -138.09469604 322.26141357 C-141.19606945 319.17194559 -144.29335346 316.07844375 -147.38818359 312.98242188 C-151.32598908 309.04441311 -155.27738722 305.12035743 -159.2324543 301.19969559 C-162.30398299 298.15055493 -165.36622577 295.09221367 -168.42605209 292.03133392 C-169.8778734 290.58184912 -171.33288365 289.13555019 -172.79132462 287.69272614 C-193.17756141 267.50454175 -206.63782438 245.64147894 -207.1875 216.25 C-206.88555868 185.0158482 -191.79098725 163.3027168 -170.57543945 142.203125 C-169.01526101 140.64051474 -167.45572859 139.07725923 -165.89678955 137.51341248 C-161.68699825 133.2942664 -157.46792651 129.08451798 -153.24678063 124.87673569 C-148.82273452 120.46405199 -144.40645171 116.04361034 -139.98905945 111.62426758 C-132.57757711 104.21190429 -125.16019106 96.80548774 -117.73901367 89.40283203 C-110.10985994 81.79271388 -102.48672993 74.17662526 -94.86987305 66.55419922 C-85.67138641 57.34900682 -76.46791406 48.14882688 -67.25981712 38.95324707 C-63.74821636 35.44628998 -60.23850604 31.93745688 -56.73027992 28.42712402 C-52.60379741 24.29875933 -48.47235903 20.17541884 -44.33702087 16.05592537 C-42.81996188 14.54311117 -41.30459816 13.02859476 -39.79105186 11.51226616 C-37.72651967 9.44451466 -35.6559435 7.38301166 -33.58369446 5.32299805 C-32.98505484 4.72057911 -32.38641523 4.11816017 -31.76963502 3.49748611 C-21.90411779 -6.26507978 -11.81247524 -7.75957425 0 0 Z " fill="#FCFDFB" transform="translate(283,15)"/>
<path d="M0 0 C0.65088256 -0.00679667 1.30176512 -0.01359334 1.9723714 -0.02059597 C4.13391323 -0.03945047 6.29488271 -0.03713892 8.45649719 -0.03465271 C10.01440146 -0.04363783 11.57229907 -0.05384781 13.13018799 -0.06518555 C17.34948886 -0.09161793 21.56860703 -0.09871627 25.7879827 -0.10063291 C28.42892384 -0.10276993 31.06981899 -0.1091834 33.71074867 -0.11712456 C42.93820248 -0.14485906 52.16552653 -0.15713288 61.39302063 -0.1547699 C69.97109505 -0.15296964 78.54860223 -0.18458973 87.12653321 -0.23200089 C94.50941791 -0.27134096 101.89211812 -0.28731679 109.27510673 -0.28540367 C113.67647344 -0.28464182 118.07733607 -0.29302082 122.47859764 -0.32493782 C126.62313927 -0.35417364 130.76670173 -0.3540903 134.91127968 -0.33238792 C136.42367625 -0.32927364 137.93613586 -0.33619997 139.44842529 -0.3544693 C149.07179593 -0.46310073 157.1491669 0.60589252 165.16474915 6.40113831 C170.26236835 12.14659918 171.61863509 17.31274756 171.4030304 24.88160706 C170.70469233 32.26567353 167.91728213 36.2176301 162.29756165 40.95582581 C157.72294616 44.05583996 153.84232047 44.65485261 148.36000061 44.68202209 C147.68829244 44.68796434 147.01658427 44.69390658 146.3245213 44.7000289 C144.08078322 44.71732854 141.83725948 44.72041293 139.59346008 44.72340393 C137.98172554 44.7326656 136.36999537 44.74271563 134.75827026 44.75349426 C130.38413623 44.77969555 126.01006353 44.79262298 121.6358633 44.80151558 C118.9008267 44.80738465 116.16580672 44.8155957 113.4307785 44.82452393 C104.86697874 44.85186163 96.30321715 44.87120085 87.73937678 44.87892771 C77.86564749 44.88788631 67.99247233 44.92297412 58.1189115 44.9809289 C50.47880672 45.02421177 42.83885757 45.04433886 35.19863153 45.04700994 C30.63914429 45.04910257 26.08017838 45.06084191 21.52082062 45.09664917 C17.22943408 45.12969724 12.93895829 45.13388153 8.64748955 45.11637115 C7.07738486 45.11483493 5.50723034 45.12345676 3.93725014 45.14328766 C-5.01681355 45.24970653 -12.08022808 44.9060867 -18.83525085 38.40113831 C-23.40045583 32.78242449 -25.39637994 26.97610829 -25.2141571 19.77223206 C-24.31638002 14.1541837 -21.15838607 9.29543175 -16.96025085 5.52613831 C-11.44230285 1.77393366 -6.67562487 0.02898625 0 0 Z " fill="#B2AFAE" transform="translate(215.8352508544922,208.59886169433594)"/>
<path d="M0 0 C5.87696702 3.72685713 9.07593871 8.32840285 11 15 C12.17149307 21.30432355 10.26697089 26.61723748 7 32 C3.5885388 35.97679317 -0.14780747 39.57905629 -3.9375 43.1875 C-5.90949997 45.09298854 -7.87480512 47.00530584 -9.83984375 48.91796875 C-11.20786133 50.24550171 -11.20786133 50.24550171 -12.60351562 51.59985352 C-15.27468708 54.27510684 -17.62942158 57.06066476 -20 60 C-21.17554692 61.09866516 -22.38175666 62.1660688 -23.625 63.1875 C-27.02593777 66.06180002 -30.06133669 69.14463736 -33.125 72.375 C-42.63577396 82.11432615 -54.27148321 88.35218421 -67 93 C-68.08925781 93.41378906 -69.17851562 93.82757813 -70.30078125 94.25390625 C-92.24810096 101.38740654 -115.83208644 97.51809522 -136.0546875 87.484375 C-140.68350863 85.05332305 -144.41508544 82.8587622 -148 79 C-147.319375 79.165 -146.63875 79.33 -145.9375 79.5 C-138.50937038 80.76436249 -132.50136352 79.83441209 -126 76 C-120.95747009 71.13349269 -118.34487112 65.65563388 -117.6875 58.6875 C-118.07333162 54.13468692 -119.38145646 50.2486768 -121 46 C-115.39238754 47.81868512 -115.39238754 47.81868512 -112.78515625 49.0234375 C-102.1003693 53.66613383 -89.81655142 53.80632487 -78.875 49.875 C-73.64997219 47.53387365 -69.28355262 44.77910231 -65 41 C-64.19949219 40.30648437 -63.39898437 39.61296875 -62.57421875 38.8984375 C-57.17576547 34.13075949 -52.04591217 29.13581706 -47 24 C-46.04232893 23.0618235 -45.08409267 22.12422316 -44.125 21.1875 C-41.86323046 18.99188856 -41.86323046 18.99188856 -40 16 C-39.34 16 -38.68 16 -38 16 C-37.74863281 15.41089844 -37.49726563 14.82179688 -37.23828125 14.21484375 C-35.84544599 11.72355798 -34.3791428 10.37699586 -32.1875 8.5625 C-29.76329248 6.52999567 -27.63644335 4.60008768 -25.5 2.25 C-18.0972813 -4.41244683 -8.60069316 -4.46965156 0 0 Z " fill="#F59D1A" transform="translate(320,283)"/>
<path d="M0 0 C18.7216269 6.09084414 32.66780111 15.37558151 46.43212891 29.40161133 C49.60499408 32.63415272 52.83847098 35.64802916 56.34765625 38.51611328 C58.13568133 40.12184857 59.63144435 41.83434875 61.1796875 43.671875 C63.69512525 46.58314473 66.2902787 49.31338463 69.078125 51.96484375 C69.76390625 52.62033203 70.4496875 53.27582031 71.15625 53.95117188 C72.55839116 55.28137482 73.97000222 56.60166264 75.390625 57.91210938 C81.16108561 63.48038528 83.3550202 68.56576388 84.5 76.4375 C83.62669703 82.65978368 80.90392952 88.66040912 76.1875 92.9375 C70.31682212 96.73617392 64.13207776 99.39004066 57 98 C48.01533562 94.65654909 43.03366746 89.24040096 37 82 C34.18542226 79.03328292 31.23414961 76.33536923 28.125 73.6875 C25.33828521 71.2817406 22.87923485 68.80836625 20.5 66 C17.00714976 61.88655222 13.12556926 58.46207564 9 55 C8.05125 54.13375 7.1025 53.2675 6.125 52.375 C-5.34030603 43.66136742 -17.53704015 41.65141649 -31.65625 43.3125 C-35.5023379 44.0501059 -38.56591622 45.19080387 -41.9375 47.1875 C-42.948125 47.785625 -43.95875 48.38375 -45 49 C-45.66 48.67 -46.32 48.34 -47 48 C-46.42592911 47.42814972 -45.85185822 46.85629944 -45.26039124 46.26712036 C-39.85738284 40.88412818 -34.45676923 35.49875018 -29.05884647 30.11065865 C-26.28347267 27.34050902 -23.50717399 24.5712996 -20.72875977 21.80419922 C-18.04873923 19.13502401 -15.37115095 16.4634313 -12.69524956 13.7901268 C-11.67262919 12.76935771 -10.64912742 11.74947085 -9.62474251 10.73047256 C-8.19290935 9.30587156 -6.76446187 7.87787011 -5.33618164 6.44970703 C-4.52121719 5.6369632 -3.70625275 4.82421936 -2.86659241 3.98684692 C-0.94801782 2.13477122 -0.94801782 2.13477122 0 0 Z " fill="#F49D1A" transform="translate(247,84)"/>
</svg>
