<?xml version="1.0" encoding="UTF-8"?>
<!DOCTYPE svg PUBLIC "-//W3C//DTD SVG 1.1//EN" "http://www.w3.org/Graphics/SVG/1.1/DTD/svg11.dtd">
<svg xmlns="http://www.w3.org/2000/svg" version="1.1" width="800px" height="800px" style="shape-rendering:geometricPrecision; text-rendering:geometricPrecision; image-rendering:optimizeQuality; fill-rule:evenodd; clip-rule:evenodd" xmlns:xlink="http://www.w3.org/1999/xlink">
<g><path style="opacity:1" fill="#563d7c" d="M 88.5,-0.5 C 295.833,-0.5 503.167,-0.5 710.5,-0.5C 759.833,9.5 789.5,39.1667 799.5,88.5C 799.5,295.833 799.5,503.167 799.5,710.5C 789.5,759.833 759.833,789.5 710.5,799.5C 503.167,799.5 295.833,799.5 88.5,799.5C 39.1667,789.5 9.5,759.833 -0.5,710.5C -0.5,503.167 -0.5,295.833 -0.5,88.5C 9.5,39.1667 39.1667,9.5 88.5,-0.5 Z"/></g>
<g><path style="opacity:1" fill="#fefefe" d="M 224.5,157.5 C 312.512,157.049 400.512,157.549 488.5,159C 576.914,167.398 615.747,215.565 605,303.5C 599.559,329.935 585.726,350.768 563.5,366C 556.663,370.253 549.663,374.253 542.5,378C 599.647,397.054 628.98,436.887 630.5,497.5C 630.585,561.851 600.585,605.351 540.5,628C 520.03,634.894 499.03,639.227 477.5,641C 393.167,641.5 308.834,641.667 224.5,641.5C 224.5,480.167 224.5,318.833 224.5,157.5 Z"/></g>
<g><path style="opacity:1" fill="#563d7c" d="M 331.5,240.5 C 369.501,240.333 407.501,240.5 445.5,241C 492.01,244.857 510.844,269.69 502,315.5C 496.354,333.811 484.187,345.311 465.5,350C 459.574,351.432 453.574,352.432 447.5,353C 408.835,353.5 370.168,353.667 331.5,353.5C 331.5,315.833 331.5,278.167 331.5,240.5 Z"/></g>
<g><path style="opacity:1" fill="#c4bcd1" d="M 456.5,426.5 C 414.833,426.5 373.167,426.5 331.5,426.5C 331.5,470.5 331.5,514.5 331.5,558.5C 330.501,514.336 330.168,470.003 330.5,425.5C 372.67,425.168 414.67,425.501 456.5,426.5 Z"/></g>
<g><path style="opacity:1" fill="#563d7c" d="M 456.5,426.5 C 507.643,430.735 529.81,458.402 523,509.5C 519.232,528.927 508.399,542.76 490.5,551C 481.418,554.361 472.085,556.694 462.5,558C 418.835,558.5 375.168,558.667 331.5,558.5C 331.5,514.5 331.5,470.5 331.5,426.5C 373.167,426.5 414.833,426.5 456.5,426.5 Z"/></g>
</svg>
