<?xml version="1.0" encoding="UTF-8"?>
<!DOCTYPE svg PUBLIC "-//W3C//DTD SVG 1.1//EN" "http://www.w3.org/Graphics/SVG/1.1/DTD/svg11.dtd">
<svg xmlns="http://www.w3.org/2000/svg" version="1.1" width="800px" height="800px" style="shape-rendering:geometricPrecision; text-rendering:geometricPrecision; image-rendering:optimizeQuality; fill-rule:evenodd; clip-rule:evenodd" xmlns:xlink="http://www.w3.org/1999/xlink">
<g><path style="opacity:0.998" fill="#f24d1d" d="M 249.5,-0.5 C 299.5,-0.5 349.5,-0.5 399.5,-0.5C 399.5,88.1667 399.5,176.833 399.5,265.5C 351.997,265.168 304.664,265.501 257.5,266.5C 255.833,266.5 254.167,266.5 252.5,266.5C 200.459,259.064 163.626,231.398 142,183.5C 123.668,132.153 131.668,85.4868 166,43.5C 188.77,19.1987 216.603,4.53203 249.5,-0.5 Z"/></g>
<g><path style="opacity:0.997" fill="#fe7161" d="M 399.5,-0.5 C 449.5,-0.5 499.5,-0.5 549.5,-0.5C 612.726,11.2246 651.226,48.558 665,111.5C 671.56,166.183 653.06,210.017 609.5,243C 590.245,255.694 569.245,263.527 546.5,266.5C 535.5,266.5 524.5,266.5 513.5,266.5C 475.5,266.5 437.5,266.5 399.5,266.5C 352.167,266.5 304.833,266.5 257.5,266.5C 304.664,265.501 351.997,265.168 399.5,265.5C 399.5,176.833 399.5,88.1667 399.5,-0.5 Z"/></g>
<g><path style="opacity:0.998" fill="#a259ff" d="M 252.5,266.5 C 254.167,266.5 255.833,266.5 257.5,266.5C 304.833,266.5 352.167,266.5 399.5,266.5C 399.5,305.5 399.5,344.5 399.5,383.5C 399.5,394.167 399.5,404.833 399.5,415.5C 399.5,454.5 399.5,493.5 399.5,532.5C 350.5,532.5 301.5,532.5 252.5,532.5C 199.025,525.517 161.858,497.184 141,447.5C 122.301,389.126 135.134,338.959 179.5,297C 200.685,279.542 225.019,269.376 252.5,266.5 Z"/></g>
<g><path style="opacity:0.996" fill="#1abcfe" d="M 513.5,266.5 C 524.5,266.5 535.5,266.5 546.5,266.5C 597.524,273.366 634.024,300.033 656,346.5C 675.184,397.22 668.184,443.887 635,486.5C 595.407,528.693 547.574,542.193 491.5,527C 439.057,507.73 408.391,470.563 399.5,415.5C 399.5,404.833 399.5,394.167 399.5,383.5C 411.146,318.853 449.146,279.853 513.5,266.5 Z"/></g>
<g><path style="opacity:0.998" fill="#0ace83" d="M 252.5,532.5 C 301.5,532.5 350.5,532.5 399.5,532.5C 399.667,582.501 399.5,632.501 399,682.5C 390.195,737.946 359.361,775.112 306.5,794C 298.437,796.175 290.437,798.009 282.5,799.5C 271.5,799.5 260.5,799.5 249.5,799.5C 186.273,787.774 147.773,750.441 134,687.5C 127.44,632.817 145.94,588.983 189.5,556C 208.755,543.306 229.755,535.473 252.5,532.5 Z"/></g>
</svg>
