<?xml version="1.0" encoding="UTF-8"?>
<!DOCTYPE svg PUBLIC "-//W3C//DTD SVG 1.1//EN" "http://www.w3.org/Graphics/SVG/1.1/DTD/svg11.dtd">
<svg xmlns="http://www.w3.org/2000/svg" version="1.1" width="800px" height="800px" style="shape-rendering:geometricPrecision; text-rendering:geometricPrecision; image-rendering:optimizeQuality; fill-rule:evenodd; clip-rule:evenodd" xmlns:xlink="http://www.w3.org/1999/xlink">
<g><path style="opacity:0.983" fill="#e76e00" d="M 480.5,-0.5 C 481.167,-0.5 481.833,-0.5 482.5,-0.5C 500.611,23.2854 506.778,49.9521 501,79.5C 496.041,101.08 487.041,120.747 474,138.5C 459.316,158.523 442.483,176.689 423.5,193C 408.833,205 394.167,217 379.5,229C 363.928,243.23 351.428,259.73 342,278.5C 333.138,300.61 333.471,322.61 343,344.5C 346.825,352.819 351.158,360.819 356,368.5C 368,385.833 380,403.167 392,420.5C 395.807,426.429 398.641,432.429 400.5,438.5C 368.659,412.83 340.826,383.496 317,350.5C 304.276,332.163 297.443,311.83 296.5,289.5C 296.893,273.928 300.726,259.262 308,245.5C 320.508,223.982 336.342,205.148 355.5,189C 375.5,172.333 395.5,155.667 415.5,139C 432.566,123.947 447.399,107.113 460,88.5C 476.755,61.1442 483.589,31.4775 480.5,-0.5 Z"/></g>
<g><path style="opacity:0.98" fill="#e76e00" d="M 580.5,162.5 C 581.552,162.351 582.552,162.517 583.5,163C 556.56,176.133 530.56,190.8 505.5,207C 487.043,219.123 471.543,234.29 459,252.5C 447.862,271.32 446.862,290.653 456,310.5C 463.58,326.676 472.914,341.676 484,355.5C 495.391,373.972 496.391,392.972 487,412.5C 477.305,429.197 464.472,443.03 448.5,454C 442.335,458.25 436.002,462.25 429.5,466C 428.5,466.667 427.5,466.667 426.5,466C 439.126,455.577 447.293,442.411 451,426.5C 452.982,414.763 450.982,403.763 445,393.5C 434.602,381.035 424.936,368.035 416,354.5C 392.329,313.203 396.662,275.203 429,240.5C 454.564,216.617 483.731,198.117 516.5,185C 537.474,176.177 558.807,168.677 580.5,162.5 Z"/></g>
<g><path style="opacity:0.966" fill="#5382a1" d="M 624.5,431.5 C 649.494,429.77 670.66,437.77 688,455.5C 702.174,476.141 703.174,497.475 691,519.5C 681.833,534 670,545.833 655.5,555C 628.752,570.92 600.252,582.753 570,590.5C 570.222,588.544 571.055,586.71 572.5,585C 602.327,571.167 628.161,552 650,527.5C 658.896,516.203 664.062,503.369 665.5,489C 662.577,463.075 648.243,447.741 622.5,443C 617.5,442.333 612.5,442.333 607.5,443C 600.825,444.672 594.159,446.006 587.5,447C 590.978,442.518 595.312,439.184 600.5,437C 608.505,434.57 616.505,432.736 624.5,431.5 Z"/></g>
<g><path style="opacity:0.962" fill="#5382a1" d="M 284.5,439.5 C 292.507,439.334 300.507,439.5 308.5,440C 282.68,445.94 257.68,454.273 233.5,465C 229.028,466.972 225.695,470.138 223.5,474.5C 224.301,477.133 225.967,478.967 228.5,480C 247.692,485.858 267.359,488.858 287.5,489C 383.53,491.426 478.864,484.76 573.5,469C 560.72,474.889 548.386,481.556 536.5,489C 488.148,500.336 439.148,507.002 389.5,509C 337.423,511.67 285.423,510.67 233.5,506C 214.448,504.256 195.781,500.589 177.5,495C 172.554,493.28 168.387,490.446 165,486.5C 164.245,483.697 164.578,481.03 166,478.5C 170.892,473.3 176.725,469.466 183.5,467C 215.876,452.658 249.543,443.492 284.5,439.5 Z"/></g>
<g><path style="opacity:0.975" fill="#5382a1" d="M 270.5,530.5 C 271.552,530.351 272.552,530.517 273.5,531C 269.964,534.201 266.797,537.701 264,541.5C 261.646,549.282 264.479,554.448 272.5,557C 276.723,558.472 281.057,559.472 285.5,560C 360.203,569.489 434.37,566.322 508,550.5C 518.442,558.977 529.942,565.81 542.5,571C 501.126,583.508 458.793,591.175 415.5,594C 375.395,596.742 335.395,595.742 295.5,591C 274.169,588.671 254.169,582.338 235.5,572C 226.505,563.525 226.838,555.191 236.5,547C 247.251,540.123 258.585,534.623 270.5,530.5 Z"/></g>
<g><path style="opacity:0.979" fill="#5382a1" d="M 291.5,617.5 C 292.239,617.369 292.906,617.536 293.5,618C 290,620.167 287.167,623 285,626.5C 284.194,631.06 286.027,634.226 290.5,636C 297.316,638.43 304.316,640.097 311.5,641C 368.718,648.758 425.551,646.592 482,634.5C 497.306,642.236 512.806,649.57 528.5,656.5C 482.157,675.835 433.824,685.168 383.5,684.5C 346.696,685.41 311.029,679.576 276.5,667C 266.908,663.299 259.408,657.133 254,648.5C 252.271,641.795 254.105,636.295 259.5,632C 269.497,625.509 280.164,620.676 291.5,617.5 Z"/></g>
<g><path style="opacity:0.966" fill="#5382a1" d="M 201.5,675.5 C 208.547,675.337 215.547,675.837 222.5,677C 225.588,677.579 228.255,678.913 230.5,681C 205.363,681.867 181.697,688.201 159.5,700C 155.764,702.069 153.097,705.069 151.5,709C 151.99,710.982 152.99,712.649 154.5,714C 173.028,722.133 192.362,727.466 212.5,730C 263.605,736.747 314.938,739.913 366.5,739.5C 437.527,739.802 508.194,734.969 578.5,725C 595.086,722.437 611.42,718.77 627.5,714C 633.458,711.905 639.124,709.239 644.5,706C 653.876,699.325 654.876,691.658 647.5,683C 656.678,684.509 662.344,689.842 664.5,699C 663.412,703.748 661.079,707.748 657.5,711C 648.39,717.89 638.39,723.223 627.5,727C 580.318,742.303 531.985,751.97 482.5,756C 363.892,766.669 245.892,762.003 128.5,742C 119.98,740.382 111.98,737.382 104.5,733C 98.8577,727.568 98.0244,721.401 102,714.5C 111.375,705.222 122.208,698.056 134.5,693C 156.189,684.15 178.522,678.316 201.5,675.5 Z"/></g>
<g><path style="opacity:0.95" fill="#5382a1" d="M 457.5,799.5 C 422.833,799.5 388.167,799.5 353.5,799.5C 322.521,798.128 291.521,795.294 260.5,791C 249.034,789.307 237.701,786.973 226.5,784C 219.725,782.3 213.392,779.633 207.5,776C 306.307,788.396 405.307,789.729 504.5,780C 546.761,776.012 588.427,768.679 629.5,758C 650.773,752.58 670.773,744.246 689.5,733C 693.333,730.5 696.5,727.333 699,723.5C 698.313,734.701 693.48,743.868 684.5,751C 670.224,761.325 654.558,768.992 637.5,774C 599.231,784.99 560.231,791.99 520.5,795C 499.356,796.683 478.356,798.183 457.5,799.5 Z"/></g>
</svg>
