<?xml version="1.0" encoding="UTF-8"?>
<!DOCTYPE svg PUBLIC "-//W3C//DTD SVG 1.1//EN" "http://www.w3.org/Graphics/SVG/1.1/DTD/svg11.dtd">
<svg xmlns="http://www.w3.org/2000/svg" version="1.1" width="800px" height="800px" style="shape-rendering:geometricPrecision; text-rendering:geometricPrecision; image-rendering:optimizeQuality; fill-rule:evenodd; clip-rule:evenodd" xmlns:xlink="http://www.w3.org/1999/xlink">
<g><path style="opacity:0.999" fill="#13aa52" d="M 371.5,-0.5 C 390.167,-0.5 408.833,-0.5 427.5,-0.5C 567.475,13.4168 673.975,80.0835 747,199.5C 777.137,253.07 794.637,310.403 799.5,371.5C 799.5,390.167 799.5,408.833 799.5,427.5C 785.583,567.475 718.917,673.975 599.5,747C 545.93,777.137 488.597,794.637 427.5,799.5C 408.833,799.5 390.167,799.5 371.5,799.5C 231.525,785.583 125.025,718.917 52,599.5C 21.8633,545.93 4.36334,488.597 -0.5,427.5C -0.5,408.5 -0.5,389.5 -0.5,370.5C 14.2557,226.739 83.9224,118.906 208.5,47C 259.636,19.8036 313.969,3.97022 371.5,-0.5 Z"/></g>
<g><path style="opacity:1" fill="#fefefe" d="M 400.5,161.5 C 405.114,171.391 410.281,181.058 416,190.5C 462.9,234.943 493.233,288.943 507,352.5C 520.159,438.03 495.326,510.197 432.5,569C 428.318,571.926 424.318,575.093 420.5,578.5C 415.727,598.593 412.394,618.926 410.5,639.5C 407.167,639.5 403.833,639.5 400.5,639.5C 399.33,624.142 397.83,608.809 396,593.5C 395.815,589.344 394.982,585.344 393.5,581.5C 305.233,510.521 276.4,420.187 307,310.5C 323.236,257.307 352.57,212.974 395,177.5C 398.056,172.619 399.889,167.286 400.5,161.5 Z"/></g>
<g><path style="opacity:1" fill="#27ae5a" d="M 414.5,546.5 C 414.821,551.695 414.487,556.695 413.5,561.5C 410.949,559.422 409.116,556.756 408,553.5C 403.934,542.835 401.267,531.835 400,520.5C 399.134,465.797 400.134,411.131 403,356.5C 403.794,347.976 405.127,347.643 407,355.5C 411.058,419.106 413.558,482.773 414.5,546.5 Z"/></g>
<g><path style="opacity:1" fill="#b4e4c7" d="M 414.5,546.5 C 415.815,551.68 415.815,557.014 414.5,562.5C 413.893,562.376 413.56,562.043 413.5,561.5C 414.487,556.695 414.821,551.695 414.5,546.5 Z"/></g>
</svg>
