<?xml version="1.0" encoding="UTF-8"?>
<!DOCTYPE svg PUBLIC "-//W3C//DTD SVG 1.1//EN" "http://www.w3.org/Graphics/SVG/1.1/DTD/svg11.dtd">
<svg xmlns="http://www.w3.org/2000/svg" version="1.1" width="800px" height="800px" style="shape-rendering:geometricPrecision; text-rendering:geometricPrecision; image-rendering:optimizeQuality; fill-rule:evenodd; clip-rule:evenodd" xmlns:xlink="http://www.w3.org/1999/xlink">
<g><path style="opacity:0.996" fill="#2e7aba" d="M 574.5,145.5 C 573.509,151.979 573.176,158.646 573.5,165.5C 487.332,165.833 401.332,165.499 315.5,164.5C 334.469,154.545 339.969,139.545 332,119.5C 320.965,103.267 306.132,98.4333 287.5,105C 267.989,116.877 263.489,133.044 274,153.5C 278.423,158.609 283.59,162.609 289.5,165.5C 268.167,165.5 246.833,165.5 225.5,165.5C 225.824,158.646 225.491,151.979 224.5,145.5C 227.669,101.977 249.336,71.8108 289.5,55C 296.316,52.5701 303.316,50.9034 310.5,50C 369.833,49.3333 429.167,49.3333 488.5,50C 530.551,57.052 558.051,80.8853 571,121.5C 572.7,129.471 573.866,137.471 574.5,145.5 Z"/></g>
<g><path style="opacity:0.999" fill="#2a77b7" d="M 224.5,145.5 C 225.491,151.979 225.824,158.646 225.5,165.5C 246.833,165.5 268.167,165.5 289.5,165.5C 298.325,168.423 306.991,168.09 315.5,164.5C 401.332,165.499 487.332,165.833 573.5,165.5C 573.5,185.833 573.5,206.167 573.5,226.5C 514.833,226.5 456.167,226.5 397.5,226.5C 397.5,221.833 397.5,217.167 397.5,212.5C 339.833,212.5 282.167,212.5 224.5,212.5C 224.5,190.167 224.5,167.833 224.5,145.5 Z"/></g>
<g><path style="opacity:0.999" fill="#2674b4" d="M 397.5,226.5 C 456.167,226.5 514.833,226.5 573.5,226.5C 573.5,241.833 573.5,257.167 573.5,272.5C 404.5,272.5 235.5,272.5 66.5,272.5C 84.1878,248.143 108.188,234.31 138.5,231C 224.833,230.5 311.166,230.333 397.5,230.5C 397.5,229.167 397.5,227.833 397.5,226.5 Z"/></g>
<g><path style="opacity:0.995" fill="#fed947" d="M 734.5,275.5 C 687.167,275.5 639.833,275.5 592.5,275.5C 592.5,260.5 592.5,245.5 592.5,230.5C 615.169,230.333 637.836,230.5 660.5,231C 691.981,234.891 716.648,249.725 734.5,275.5 Z"/></g>
<g><path style="opacity:0.999" fill="#2371b2" d="M 574.5,145.5 C 574.667,200.501 574.5,255.501 574,310.5C 573.675,316.916 572.842,323.249 571.5,329.5C 397.5,329.5 223.5,329.5 49.5,329.5C 48.5409,308.389 54.2076,289.389 66.5,272.5C 235.5,272.5 404.5,272.5 573.5,272.5C 573.5,257.167 573.5,241.833 573.5,226.5C 573.5,206.167 573.5,185.833 573.5,165.5C 573.176,158.646 573.509,151.979 574.5,145.5 Z"/></g>
<g><path style="opacity:0.997" fill="#fed741" d="M 592.5,275.5 C 639.833,275.5 687.167,275.5 734.5,275.5C 742.847,287.869 747.847,301.536 749.5,316.5C 697.238,317.495 644.905,317.829 592.5,317.5C 592.5,303.5 592.5,289.5 592.5,275.5 Z"/></g>
<g><path style="opacity:0.998" fill="#fed53b" d="M 749.5,316.5 C 749.5,330.5 749.5,344.5 749.5,358.5C 693.167,358.5 636.833,358.5 580.5,358.5C 586.969,345.438 590.969,331.772 592.5,317.5C 644.905,317.829 697.238,317.495 749.5,316.5 Z"/></g>
<g><path style="opacity:0.999" fill="#206faf" d="M 49.5,329.5 C 223.5,329.5 397.5,329.5 571.5,329.5C 561.603,361.561 540.27,381.395 507.5,389C 437.86,390.31 368.193,390.977 298.5,391C 294.168,391.583 289.835,392.083 285.5,392.5C 207.002,391.501 128.335,391.167 49.5,391.5C 49.5,370.833 49.5,350.167 49.5,329.5 Z"/></g>
<g><path style="opacity:0.997" fill="#fdd434" d="M 580.5,358.5 C 636.833,358.5 693.167,358.5 749.5,358.5C 749.5,374.833 749.5,391.167 749.5,407.5C 669.332,407.833 589.332,407.499 509.5,406.5C 540.537,401.166 564.204,385.166 580.5,358.5 Z"/></g>
<g><path style="opacity:0.998" fill="#1d6cad" d="M 49.5,391.5 C 128.335,391.167 207.002,391.501 285.5,392.5C 251.068,400.946 226.735,421.279 212.5,453.5C 158.167,453.5 103.833,453.5 49.5,453.5C 49.5,432.833 49.5,412.167 49.5,391.5 Z"/></g>
<g><path style="opacity:0.996" fill="#fcd22e" d="M 509.5,406.5 C 589.332,407.499 669.332,407.833 749.5,407.5C 749.5,421.167 749.5,434.833 749.5,448.5C 578.5,448.5 407.5,448.5 236.5,448.5C 249.396,428.134 267.73,415.3 291.5,410C 361.14,408.69 430.807,408.023 500.5,408C 503.587,407.741 506.587,407.241 509.5,406.5 Z"/></g>
<g><path style="opacity:0.999" fill="#fcd028" d="M 236.5,448.5 C 407.5,448.5 578.5,448.5 749.5,448.5C 749.667,460.838 749.5,473.171 749,485.5C 748.809,487.708 748.309,489.708 747.5,491.5C 573.667,490.5 399.667,490.167 225.5,490.5C 225.5,503.5 225.5,516.5 225.5,529.5C 225.672,530.492 225.338,531.158 224.5,531.5C 224.171,513.472 224.671,495.472 226,477.5C 227.426,467.052 230.926,457.385 236.5,448.5 Z"/></g>
<g><path style="opacity:0.997" fill="#1a69aa" d="M 49.5,453.5 C 103.833,453.5 158.167,453.5 212.5,453.5C 207.505,470.451 205.505,487.784 206.5,505.5C 156.167,505.5 105.833,505.5 55.5,505.5C 52.7563,499.203 50.923,492.536 50,485.5C 49.5002,474.839 49.3335,464.172 49.5,453.5 Z"/></g>
<g><path style="opacity:0.999" fill="#fccf22" d="M 747.5,491.5 C 744.973,506.213 738.973,519.213 729.5,530.5C 561.667,529.5 393.667,529.167 225.5,529.5C 225.5,516.5 225.5,503.5 225.5,490.5C 399.667,490.167 573.667,490.5 747.5,491.5 Z"/></g>
<g><path style="opacity:0.993" fill="#fbcd1c" d="M 225.5,529.5 C 393.667,529.167 561.667,529.5 729.5,530.5C 711.809,552.353 688.809,564.853 660.5,568C 574.167,568.5 487.834,568.667 401.5,568.5C 401.5,572.5 401.5,576.5 401.5,580.5C 342.833,580.5 284.167,580.5 225.5,580.5C 225.5,605.5 225.5,630.5 225.5,655.5C 224.501,614.337 224.168,573.003 224.5,531.5C 225.338,531.158 225.672,530.492 225.5,529.5 Z"/></g>
<g><path style="opacity:0.985" fill="#1666a8" d="M 55.5,505.5 C 105.833,505.5 156.167,505.5 206.5,505.5C 206.5,526.5 206.5,547.5 206.5,568.5C 183.831,568.667 161.164,568.5 138.5,568C 104.521,563.945 78.6878,547.445 61,518.5C 58.6732,514.347 56.8399,510.013 55.5,505.5 Z"/></g>
<g><path style="opacity:0.998" fill="#faca11" d="M 401.5,580.5 C 401.5,582.5 401.5,584.5 401.5,586.5C 459.167,586.5 516.833,586.5 574.5,586.5C 574.745,612.181 574.412,637.847 573.5,663.5C 559.167,663.5 544.833,663.5 530.5,663.5C 528.029,643.864 516.862,633.198 497,631.5C 477.599,633.071 466.432,643.405 463.5,662.5C 384.237,663.497 304.904,663.83 225.5,663.5C 225.5,660.833 225.5,658.167 225.5,655.5C 225.5,630.5 225.5,605.5 225.5,580.5C 284.167,580.5 342.833,580.5 401.5,580.5 Z"/></g>
<g><path style="opacity:0.996" fill="#f9c705" d="M 463.5,662.5 C 464.538,683.707 475.704,695.374 497,697.5C 517.821,695.513 528.988,684.18 530.5,663.5C 544.833,663.5 559.167,663.5 573.5,663.5C 568.09,700.406 548.424,726.573 514.5,742C 506.112,745.351 497.445,747.685 488.5,749C 429.167,749.667 369.833,749.667 310.5,749C 273.663,743.154 247.497,723.321 232,689.5C 228.575,681.133 226.408,672.467 225.5,663.5C 304.904,663.83 384.237,663.497 463.5,662.5 Z"/></g>
</svg>
