<?xml version="1.0" encoding="UTF-8"?>
<!DOCTYPE svg PUBLIC "-//W3C//DTD SVG 1.1//EN" "http://www.w3.org/Graphics/SVG/1.1/DTD/svg11.dtd">
<svg xmlns="http://www.w3.org/2000/svg" version="1.1" width="800px" height="800px" style="shape-rendering:geometricPrecision; text-rendering:geometricPrecision; image-rendering:optimizeQuality; fill-rule:evenodd; clip-rule:evenodd" xmlns:xlink="http://www.w3.org/1999/xlink">
<g><path style="opacity:0.994" fill="#00bcf2" d="M 232.5,-0.5 C 264.167,-0.5 295.833,-0.5 327.5,-0.5C 378.425,3.06163 427.758,14.2283 475.5,33C 497.94,41.9596 517.773,54.793 535,71.5C 546.887,85.1945 551.887,101.195 550,119.5C 550.5,230.166 550.667,340.833 550.5,451.5C 480.67,457.22 428.67,490.387 394.5,551C 341.101,547.433 298.268,566.6 266,608.5C 246.41,637.863 238.577,670.196 242.5,705.5C 181.261,703.755 123.261,689.255 68.5,662C 53.158,654.243 39.9914,643.743 29,630.5C 24.8256,624.154 21.159,617.488 18,610.5C 17.2504,437.165 17.5838,263.831 19,90.5C 29.887,69.9463 45.7203,54.4463 66.5,44C 107.806,23.0878 151.473,9.75452 197.5,4C 209.298,2.33627 220.964,0.836272 232.5,-0.5 Z M 256.5,38.5 C 300.85,36.9616 344.85,40.1283 388.5,48C 405.643,51.4519 422.31,56.4519 438.5,63C 448.961,67.3087 458.128,73.4754 466,81.5C 473.303,91.0146 472.969,100.348 465,109.5C 455.725,117.892 445.225,124.392 433.5,129C 390.438,143.788 346.104,151.121 300.5,151C 249.64,153.571 199.64,148.238 150.5,135C 131.724,130.199 115.224,121.365 101,108.5C 94.1331,100.093 93.7997,91.4266 100,82.5C 108.024,73.8997 117.524,67.3997 128.5,63C 154.254,52.7814 180.921,46.1147 208.5,43C 224.623,41.158 240.623,39.658 256.5,38.5 Z M 283.5,304.5 C 329.887,306.387 354.22,330.553 356.5,377C 356.805,395.756 350.972,412.256 339,426.5C 332.399,432.78 325.566,438.613 318.5,444C 332.847,457.675 347.847,470.675 363.5,483C 346.167,483.667 328.833,483.667 311.5,483C 302.297,472.285 292.63,461.952 282.5,452C 280.725,450.561 278.725,449.561 276.5,449C 249.467,445.225 230.634,430.725 220,405.5C 215.724,388.6 215.391,371.6 219,354.5C 229.904,324.09 251.404,307.423 283.5,304.5 Z M 145.5,305.5 C 156.505,305.333 167.505,305.5 178.5,306C 183.977,306.536 189.311,307.703 194.5,309.5C 196.398,320.462 196.732,331.462 195.5,342.5C 185.219,338.263 174.552,335.596 163.5,334.5C 154.273,333.598 148.273,337.431 145.5,346C 145.919,349.425 147.586,352.091 150.5,354C 160.677,359.589 171.01,364.922 181.5,370C 203.694,383.939 209.194,402.772 198,426.5C 188.748,439.213 176.248,446.38 160.5,448C 147.833,448.667 135.167,448.667 122.5,448C 116.236,446.394 110.07,444.56 104,442.5C 103.333,430.5 103.333,418.5 104,406.5C 117.28,415.152 131.78,419.318 147.5,419C 155.822,417.52 158.988,412.687 157,404.5C 155.167,401.333 152.667,398.833 149.5,397C 138.061,392.114 127.061,386.448 116.5,380C 101.153,365.777 97.6525,348.944 106,329.5C 115.377,315.23 128.543,307.23 145.5,305.5 Z M 379.5,306.5 C 392.833,306.5 406.167,306.5 419.5,306.5C 419.5,342.833 419.5,379.167 419.5,415.5C 436.167,415.5 452.833,415.5 469.5,415.5C 469.5,426.167 469.5,436.833 469.5,447.5C 439.5,447.5 409.5,447.5 379.5,447.5C 379.5,400.5 379.5,353.5 379.5,306.5 Z"/></g>
<g><path style="opacity:0.983" fill="#00bcf2" d="M 280.5,339.5 C 291.122,337.866 299.622,341.2 306,349.5C 308.551,353.935 310.551,358.601 312,363.5C 312.667,372.5 312.667,381.5 312,390.5C 309.189,404.149 301.022,412.482 287.5,415.5C 272.328,413.827 263.495,405.493 261,390.5C 260.097,379.774 260.431,369.107 262,358.5C 265.378,349.29 271.545,342.957 280.5,339.5 Z"/></g>
<g><path style="opacity:0.968" fill="#00bcf2" d="M 728.5,799.5 C 607.5,799.5 486.5,799.5 365.5,799.5C 325.716,795.576 295.216,776.576 274,742.5C 258.481,712.88 255.148,681.88 264,649.5C 279.57,605.937 310.07,579.437 355.5,570C 368.5,569.333 381.5,569.333 394.5,570C 397.224,570.27 399.891,570.77 402.5,571.5C 425.395,521.775 463.061,488.942 515.5,473C 580.983,459.386 636.483,476.886 682,525.5C 715.154,565.941 727.987,612.108 720.5,664C 753.845,670.013 774.011,689.513 781,722.5C 783.318,761.907 765.818,787.574 728.5,799.5 Z M 540.5,489.5 C 609.727,485.628 659.56,514.628 690,576.5C 699.436,598.551 703.103,621.551 701,645.5C 699.797,658.678 697.631,671.678 694.5,684.5C 706.215,684.886 717.881,685.719 729.5,687C 755.539,699.245 765.373,719.412 759,747.5C 752.5,762 742,772.5 727.5,779C 603.82,779.974 480.153,779.64 356.5,778C 314.236,768.36 288.903,742.194 280.5,699.5C 275.815,658.379 290.481,626.212 324.5,603C 346.917,589.708 370.917,585.708 396.5,591C 402.088,592.807 407.755,594.307 413.5,595.5C 414.5,595.167 415.5,594.833 416.5,594.5C 432.472,545.361 464.806,512.195 513.5,495C 522.549,492.691 531.549,490.857 540.5,489.5 Z"/></g>
</svg>
